/* XPM */
static char *cabibara[] = {
/* columns rows colors chars-per-pixel */
"64 74 256 2 ",
"   c #352D1E",
".  c #1C1F2E",
"X  c #1D2425",
"o  c #1D252B",
"O  c #1D2A2C",
"+  c #1B2A27",
"@  c #1C2B33",
"#  c #1B2535",
"$  c #1E312A",
"%  c #232A25",
"&  c #2C2A24",
"*  c #22262B",
"=  c #232B2C",
"-  c #2C2D2B",
";  c #252626",
":  c #332D24",
">  c #362D28",
",  c #26352B",
"<  c #3D3225",
"1  c #37342A",
"2  c #242C32",
"3  c #262B35",
"4  c #253234",
"5  c #2A3234",
"6  c #273538",
"7  c #333030",
"8  c #1B261F",
"9  c #4C341E",
"0  c #443323",
"q  c #4C3C2B",
"w  c #493726",
"e  c #533B24",
"r  c #5B3E25",
"t  c #543C29",
"y  c #473B32",
"u  c #4C3227",
"i  c #643E23",
"p  c #2B4834",
"a  c #334A35",
"s  c #3A5C3D",
"d  c #35573A",
"f  c #2F4A2F",
"g  c #39633D",
"h  c #6A441A",
"j  c #774A1A",
"k  c #5C4125",
"l  c #5B422B",
"z  c #54412C",
"x  c #5A4735",
"c  c #4A4733",
"v  c #624225",
"b  c #64452B",
"n  c #664A2D",
"m  c #6B4B2D",
"M  c #69462A",
"N  c #644B32",
"B  c #6B4D32",
"V  c #634B37",
"C  c #714E32",
"Z  c #6C5133",
"A  c #6A533B",
"S  c #745334",
"D  c #795635",
"F  c #7D5936",
"G  c #75563A",
"H  c #7A563A",
"J  c #7C5A3B",
"K  c #76593B",
"L  c #765028",
"P  c #636B3E",
"I  c #232E42",
"U  c #395E42",
"Y  c #2F4841",
"T  c #3C6444",
"R  c #725B45",
"E  c #436C4A",
"W  c #436747",
"Q  c #46764A",
"!  c #4D7A54",
"~  c #705C46",
"^  c #894C18",
"/  c #975418",
"(  c #8F5118",
")  c #A75A17",
"_  c #B45E18",
"`  c #B86418",
"'  c #AB6217",
"]  c #825D3C",
"[  c #815A35",
"{  c #8F5726",
"}  c #86613D",
"|  c #8B633D",
" . c #9C6E38",
".. c #B36E28",
"X. c #A55E1E",
"o. c #C56917",
"O. c #CA741A",
"+. c #D97819",
"@. c #C96916",
"#. c #E27D17",
"$. c #EF7F09",
"%. c #C87323",
"&. c #825E40",
"*. c #856243",
"=. c #8A6543",
"-. c #8D6945",
";. c #8E6A49",
":. c #89664A",
">. c #936B45",
",. c #9A6D44",
"<. c #946D4A",
"1. c #986F4A",
"2. c #916743",
"3. c #9A7146",
"4. c #95714B",
"5. c #9B734C",
"6. c #957046",
"7. c #9C7552",
"8. c #9B7755",
"9. c #8F6C50",
"0. c #A2764C",
"q. c #A5794C",
"w. c #A37B53",
"e. c #AA7D53",
"r. c #A47D59",
"t. c #A67A56",
"y. c #AC7A4B",
"u. c #4B844B",
"i. c #4D8B4E",
"p. c #47844B",
"a. c #52894E",
"s. c #4D8C53",
"d. c #4D8553",
"f. c #528D53",
"g. c #558E5A",
"h. c #58875A",
"j. c #4E9253",
"k. c #4E9658",
"l. c #539354",
"z. c #599556",
"x. c #549A56",
"c. c #54945A",
"v. c #59955B",
"b. c #559B5B",
"n. c #5A9C5C",
"m. c #599B57",
"M. c #50924E",
"N. c #60995D",
"B. c #5BA35D",
"V. c #59A85D",
"C. c #61A45F",
"Z. c #60B05E",
"A. c #5C9D62",
"S. c #579861",
"D. c #588760",
"F. c #658A66",
"G. c #659866",
"H. c #779777",
"J. c #71906B",
"K. c #5CA462",
"L. c #5DAB63",
"P. c #5BA867",
"I. c #5EB267",
"U. c #61A463",
"Y. c #62AB64",
"T. c #64AC6B",
"R. c #69AD6C",
"E. c #66A668",
"W. c #64B366",
"Q. c #64B36B",
"!. c #6AB46C",
"~. c #65BB6C",
"^. c #6BBA6D",
"/. c #66B466",
"(. c #68AB71",
"). c #75AD7A",
"_. c #6CB472",
"`. c #6CBB73",
"'. c #6DBC7A",
"]. c #66B772",
"[. c #72BC73",
"{. c #73B878",
"}. c #70B86D",
"|. c #6DC374",
" X c #6CC679",
".X c #72C275",
"XX c #74C47A",
"oX c #74CB7C",
"OX c #7ACB7D",
"+X c #77C779",
"@X c #77D47D",
"#X c #6BD275",
"$X c #BA823A",
"%X c #EE8516",
"&X c #DF831E",
"*X c #AC8255",
"=X c #AC835B",
"-X c #A7845B",
";X c #B2865D",
":X c #B48A5D",
">X c #BC8C5D",
",X c #B18556",
"<X c #BD8E54",
"1X c #829C7C",
"2X c #B58B62",
"3X c #BA8D63",
"4X c #B18561",
"5X c #BC9163",
"6X c #B99967",
"7X c #AC8561",
"8X c #BFA175",
"9X c #C28854",
"0X c #C49566",
"qX c #C38D61",
"wX c #CEAD76",
"eX c #7C9183",
"rX c #7CAD82",
"tX c #75CD81",
"yX c #7BCD82",
"uX c #7BC684",
"iX c #75D283",
"pX c #7BD484",
"aX c #7BD986",
"sX c #6FC580",
"dX c #7EE288",
"fX c #889B85",
"gX c #959A93",
"hX c #97A897",
"jX c #97B498",
"kX c #8CAF8F",
"lX c #A7A8A7",
"zX c #A9B7A8",
"xX c #B7B7B7",
"cX c #B2B3B0",
"vX c #A0AC9F",
"bX c #CABAA0",
"nX c #81D586",
"mX c #84DB8B",
"MX c #86DB89",
"NX c #84D589",
"BX c #86E48B",
"VX c #8AEA91",
"CX c #B2C5B6",
"ZX c #C2C9BC",
"AX c #EBD4A2",
"SX c #BABEC0",
"DX c #C1BEC1",
"FX c #BECCC4",
"GX c #C8C8C8",
"HX c #D5D6D5",
"JX c #D0D1CF",
"KX c #E9E8EA",
"LX c #FEFBFE",
"PX c #F7F3F8",
"IX c #F8ECF6",
"UX c #E8E2DC",
/* pixels */
"c.!.d.Q.m.v.R.f.I.c.A.Y.s.].f.K.P.f.].s.U.L.g.Q.s.Y.A.c.Q.i.T.S.n.T.s.T.l.n.Y.g.!.j.U.P.f.Q.f.L.A.f.Q.f.Y.G.c.Q.s.T.v.b.T.s.R.c.",
"R.pXU.pX^.!.pXU.pXR.`.OXU.aXW.'.XXU.NXL.+X.XY.nXL.yX`.W.pXB.pX].!.pXY.MX^..XpXT.mX~.|.+XE.aXY.oX.XT.aXL.yX[.Q.pXB.pX!.`.pXU.nXQ.",
"f.K.u.K.l.f.K.u.V.s.c.B.u.K.f.fXrXd.L.i.v.v.s.L.u.B.c.J.kXh.K.l.j.L.W E U T E s E T b.B.u.L.i.v.v.i.L.u.B.l.s.L.u.K.l.k.P.u.K.s.",
"T.iXK.tXQ.].tXB.iXW.`.oXK.@X).UXKX).iXP.XX XL.aXP.oX!.ZXLXkX X!.I.mXU o o o = . + , uX XU.pXL.XX|.Y.iXP.oX].I.@XK.tX!.Q.tXK.yXT.",
"n.^.l.Q.B.n.^.f.~.m.K./.l.~.G.CXGXJ.~.z.Y.Y.x.^.j.Q.K.vXHXH.Q.B.N.'.a - - 2 5 * : , (.Y.l.`.l.Y.L.z.^.l.!.G.x.~.j.!.m.K.Q.M.^.n.",
"v.!.f.].B.N.!.a.~.v.U.R.l.~.v.E.(.l.^.M.Y.U.z.^.l.R.K.S.{.M.R.S., % i %.) X.` / %.{ % O Q }.l.T.U.c.Q.J.JXzXG.!.M.!.n.n.Q.l.].b.",
"T.pXK.tX/.!.yXC.iXQ.`.oXK.nXT.[.oXL.aXL.+X.XI.pXL.tX`.R.OXZ.MX[.@ # h $.o.%.#.` %X/ # # g.BXT.+X'.P.aXkXPXUX).iXK.yX!.].yXU.nXR.",
"f.C.u.B.M.f.U.d.K.a.z.n.u.L.s.m.v.u.E.u.N.v.i.U.u.n.k.a.Y.T T d i h L <X .) ) ( ` ( v j a T s G.v.a.B.h.kXH.s.V.u.K.f.c.K.u.B.d.",
"Q.aXP.iX~.Q.pXV.iXQ.`.tXP.aXI..XsXL.aXL.oX|.Z.aXV.oX'.W.dXE o - O.%X<XAXwXO.#.` %Xo.O.%Xu # f pX XL.iXP.#X~.I.aXP.iX^.~.iXL.NX(.",
"c.!.s.W.x.n.(.l.~.x.K.Y.s.Q.c.U.Y.s.^.j.Y.B.M.!.j.E.A.z.`.U * % ) o. .wX2X) o./ o.) ` ` < @ , Q.B.l.~.l.R.B.k.Q.f.T.m.b.I.s.Q.k.",
"S.`.l.].V.U.^.l.`.n.P.!.l.'.b.Y.R.v.`.b.R.Y.b.`.k.].P.b.XXT # & ' ` $XbX2X' o.) O.) ` o.u 2 f ^.Y.v.`.c.!.U.n.`.l.].C.K.`.f.`.S.",
"Y.yXK.tXQ.E.+Xm.@XY._.uXK.pXP.[.XXC.pXK..X[.U.pXK.+X_.R.NXW o & O.%X9XAXwXO.+.' &X` O.&X9 # 6 OX`.Y.pXK.XX}.T.pXV. XE.!.oXK.yXR.",
"f.U.u.V.l.fXjXh.V.M.z.B.u.Y.i.m.m.u.Y.p.n.b.s.U.u.K.z.i.V.Q Q g 9 e j $X .) _ ^ o.^ e e c p.T V.z.i.V.u.B.z.s.V.h.jX1Xc.V.p.Z.s.",
"Q.pXL.pX}.HXLXjX#XQ.'.OXU.aXW..XoXY.mXI.+XXXW.aXL.tX`.~.pXL.mX'.$ O h %X@.@.#.` %X) # o S.VXY.oX.XW.aXL.pX[.Q.iXjXLXHX`.pXU.nXQ.",
"c.Q.s.I.v.hXCXJ.I.x.A.L.s.Q.k.K.P.s.I.j.K.K.l.W.s.L.n.k.Q.s.P.c., , k ..( / ) ^ ` ^ 4 , T ~.s.P.K.l.Q.s.L.n.k.P.J.CXhXv.T.s.R.c.",
"C.[.z.'.L.U.'.l.|.C.T.!.b..Xn.Y.!.n..Xn.!.R.n..Xx.}.Y.B.[.z. XP.U.yXd + % % 4 o - 5 `.].V. Xb.].T.m..Xb.}.E.B..Xx.{.K.L.`.l.'.K.",
"U.tXA.oXI.E.+XB.oXL.]..XA.tXL.`.'.B.iXV.^.Q.L.yXK. XR.L.oXn.+XR.].mXT @ @ = @ X @ 6 .XuXn.nXK.[.Q.B.oXB..X!.P.tXS.oXY.(.oXn.+XT.",
"f.U.u.L.l.l.B.p.L.f.v.B.i.U.i.b.n.a.V.f.jXhXg.L.u.K.v.M.E.p.K.l.f p r / j j ^ h { h f p Q P.f.vXjXh.V.d.K.z.f.L.u.K.l.k.L.p.L.s.",
"!.mXL.aX^.`.pXY.aXQ..XOXY.aXQ.XXtXU.@XkXIXKX).aXL.yX|.I.NXI.aX[.@ # j %X@.+.%X` %X' # . f.BX{.IXIXrXBXZ.@X X^.MXY.pX_.`.pXY.NX].",
"s.L.p.P.k.c.L.i.I.j.n.U.p.I.j.n.K.s.I.v.zXjXf.I.s.L.m.k.I.Q c.! 0 < M %./ ) ` / ` ^ < 0 W v.d.zXjX! b.T c.d.! g.Q I.v.k.P.p.P.j.",
"K.+Xv. XY.Y.+Xm.XXU.T.[.v.XXK.!.`.S.uXb.{.R.B..XA.`.R.G.yXT . % ` O.,XAX8X` O.) &X_ o.&X0 # , ^._., = o * * o o d uXE.Y..Xn..XL.",
"K.XXn.XXY.U. Xm.#XU.Q..XB.XXK.!.`.V..XA.{._.B.OXA.'.W.L.@XW 2 & ' O...AX6Xo.%._ +.` ` O.w 3 a oX+X6 2 % 5 2 4 3 s tXE.I..XB.'.K.",
"g.Y.u.L.z.kXzXF.V.j.b.K.s.I.j.n.K.i.W.s.K.B.i.I.u.V.k.s.W.d o ; / `  .8X-X) _ ( o./ ) `   * O p p 1 t < q w ; o a Q.l.c.V.J.CXfX",
"].pXL.pX`.HXLXjX@X!.'.yXY.aXW..X@XY.aXI.+X.X~.MXW.aXXXQ.VX! 3 7 &X%X<XAXwXO.#.` %Xo.+.%Xt 4 2 3 * x F v L B 7 3 T BX].`.@XjXLXJX",
"f.Y.u.P.l.fXCXg.V.l.b.K.p.I.s.m.n.u.Y.i.n.m.Q h.T d.! E g.a * + h ( } 0X .) ' / o.( j ( - + 8 > : 0 k 0 l q ; * a Q.l.k.V.F.zXfX",
"U.oXb.oXW.U.|.k.@XU.Q..Xn.tXP.].'.B.oXV.`.[.$ O + = % + = + 4 - O O h +.` o.O.' #./ % ; O 6 7 Z n l Z r B b & 2 U iXE.I..XA.XXL.",
"C..Xv.'.U.E.[.z.|.C.Y.[.v..XB.!.].V.sXK.`.[., 3 + 4 * o 5 o = ; @ O h +.` o.O.) #.{ = 4 O 5 : N b r m r n b 8 + U +XU.P.[.v.[.K.",
"f.Y.i.I.x.x.T.i.I.l.b.U.s.I.j.m.L.f , % p , y l z :.J G :.Z :.R K 9.w 1 :   <   0   t z 0 z 9 r t e b 1 & ; ! K.Q T.z.b.I.i.T.k.",
"Q.pXK.pX^.`.pXK.aXQ.'.OXL.mXT.uXmXp 3 = 3 3 z L Z 3Xe.0.5X,.3Xw.q.0Xx @ + + 4 + I % B Z k S k n n b J w 2 + (.mXU.pX`.].pXU.nX!.",
"f.U.u.K.M.f.U.u.L.a.c.C.u.V.u.W ! 1 > & 1 > 9 r z -.} F >.S >.K F ,.y c 1 y c 1 c 0 N N k S l m n 0 w 1 d a d.L.p.C.f.j.K.p.U.s.",
"T.tXB.tX/.Q.@XB.@XZ.`.XXV.pXS.X O y K l B m v B m ;X8.3.2X-.=X8.5.;X;.5X0.e.:X<.qX0.e.4X<.3X,.-X=X7 O d NX{.L.@XB.oX!.Q.@XG.yXR.",
"n.[.c.`.B.G.].l.`.S.L.!.z..Xs.* 4 0 m e x l z N n w.<.=.w.] w.-.-.w.J t.*.<.7.J 8.} 4.4.} t.} 4.5.7 2 p `.K.K.[.l.`.B.K.].l.'.A.",
"z./.i.I.b.vXGXgXGXjXb.Z.f.^.u.o = 0 M 0 & = % : : n r ] 5.F 5.| | 3.J 5.} =.,.J 0.] 2.<.[ 0.[ ;.6.> O p Q.m.b.Q.f.W.m.b.I.i.!.x.",
"Q.pXL.iX}.HXLXDXLXGX'.OXK.NXS.= 4 q F w 4 4 2 5 7 G n 4.6X>.2X7.0.>X<.>X5.*X2X3.0X0.,X2X1.2X,.=X4X1 @ d MXXXQ.pXK.pX!.~.pXB.pXQ.",
"f.U.u.K.j.1XkXJ.jXH.c.K.Q W.Q * + < v < o * : 1 : r e S -.S ;.J ] ;.S >.K z x c V c x x B <.G :.=.< 1 1 E s s.L.u.K.g.l.K.u.U.s.",
"T.yXB.iX!.Y.oXB.#XL.`.OXB.aXS.= 5 w J q 4 4 z D r C n <.2X .>X5.0.;X2.>X<.O 2 o 3 @ @ o R qX<.*X*Xn G q * o U.@XV.OX/.!.OXK.pXT.",
"v.^.l.].n.A.!.l.].n.K.Y.s.`.s.* % < m 0 = = w b e b r ] q.J 5.-.| w.J w.&.= 5 ; 5 + 5 ; Z e.] <.<.r M < = O g.^.s.).A.A._.j.].b.",
"v.^.l.Q.B.n.].f.`.b.K.Q.g.`.u.* $ 0 B 0 ; = q m w v r ] w.[ 5.-.| 5.J w.R = = o 2 > <.<.] w.] 4.<.] -XN O % c.~.H.JXcXcXJXH.Q.v.",
"Q.pXK.tX!.!.yXZ.pXT.`.OXE.BXA.- 4 w F q 5 2 t D l B n <.:X>.2X5.0.;X2.>X<.o , o 4 7 ;Xe.<.5X,.=X*X,.qXA = = R.@XkXLXHXHXLXkX#XR.",
"f.U.Q P.f.f.K.Q L.f.f.B.U T a + O < v < o + 0 l < r e H 4.S ;.J ] 2.S <.K x x y x z :.=.m A b -.*.G 6.x 1 < d s E kXH.H.kX! K.g.",
"T.pXK.pX^.~.pXB.aXQ.`.aXd o * 4 3 e [ w 6 4 t F r Z n 4.3X>.2X7.q.2X>.>X5.*X2X4.0X0.e.;Xm B m ;X=X1.5X] B B - * U aXW.I.oXU.nX!.",
"z./.s.W.x.m.W.i.I.l.b.T.a = = , = < N < & ; w l e l e ] 0.[ 5.} | 5.J 7.} =.3.J 7.] 2.4.v M v <.-.] 0.C v r * = d `.v.n./.i.I.l.",
"A.`.c.].B.G.`.l.`.v.+ + x -X| 4.w.< 4 & b x & 2 > N r &.w.] 8.;.-.t.] w.-.<.7.*.-X*.4.7.*.r.=.4.<.=.e.*.8.9.- O d '.A.P.].l.|.A.",
"I.yXB.tXW.!.tXK.aXR.% # A 5X>.q.;X1 @ - A N - 4 > B N <.:X2.;X7.5.;X2.;X3.5.*X-.:X,.t.r.2.2X2.-Xe.<.:X;.4X8.> * g BX_.Q.yXK.yXT.",
"a.C.u.K.l.a.Y.g d p x A B 1.H =.2.x K z : > : q 0 e e D >.D 2.] J <.G <.J &.-.S >.D *.=.D <.D =.} F ,.S 2.} 0 0 1 s a M.K.p.L.s.",
"!.pXL.pX`.!.BXT # - ,X3X6.>X4.*X,X5.0X~ @ 3 z F x S M 5.5X1.5Xq.w.2X;.>X5.e.:X<.5X3.=X;X3.5X3.;X=X3.3X<.:Xr.m H y @ 4 !.pXK.NX!.",
"l.Y.i.L.x.l.Q.a * & 2.9.J 0.J 2.4.F 5.V : > 0 k 0 z e A :.A :.R [ >.S <.F =.,.D 5.[ =.2.J 5.[ 2.-.[ 3.F <.:.e l   + = z.T.s.Y.k.",
"U..Xm.'.L.U.XXs 2 5 ,.q.&.e.-.5.7.*.*X=.8.r., 4 * 4 2 o - + 2 = z n e n v 4.w.&.*X=.7.8.=.r.=.8.5.=.=X*.w.3.v m > 4 2 K. Xv.[.K.",
"U.sXn.oXT.!.mXU # ; 8.e.-.;X>.q.t.2.;X-.t.-X> 4 X O O + 5 ; 2 ; l m e m v w.*X-.:X2.w.r.-.;X-.r.w.>.;X-.*X5.b S 1 5 $ U. Xb.tXE.",
"fXzXJ.P.l.p Y c ~ V *.;.G 1.H | =.D 6.G -.} V ~ x K R V ~ x R V S *.N *.Z l n m 3.J *.-.F 4.D -.*.J 6.S -.:.e k : o O gXzXF.K.f.",
"JXLXjX#X~.$ @ V 0Xq.t.2X,.3X4.,X=X1.3X1.=X*X0.0X3.qXe.0.6X,.qX*Xy.5X4.qX5.b n } 5X3.=X=X,.5X3.=X*X5.5X<.:Xr.n F w 6 6 HXLXkX@X!.",
"gXGXeX(.J.% @ z 0.] | 2.F 1.] =.;.J 3.H ;.=.F <.S 2.} J 4.S 6.J ] <.D 6.J v b Z 5.J *.-.J 4.H -.=.J 1.K 2.=.e l & O ; hXCXF.L.f.",
"DXKXcXKXDX- O x ;X;.4.e.=.=X-.0.w.=.r.=.w.7.;.;X:.w.7.;.=X*.*X;.4.=X=.*X2.7.*X} *X=.5.w.-.*X-.w.7.2.=X=.*X5.l Z 1 3 5 U.|.v.XXP.",
"DXKXcXKXGX= @ x :X>.4.e.=.=X:.0.t.=.4X<.t.w.-.e.} -X5.2.=X=.*X4.<.r.=.=X<.4.t.:.;X2.7.w.:.,X-.8.5.-.*X} -X4.l S < O % Y.XXn.[.L.",
"F.rXg.).G.+ o c 0.F *.>.H 3.J | <.v n r n v G 1.G 6.*.] ,.H >.} } <.G ,.J }  .K 3.F =.=.F 6.F -.-.F 3.G -.*.: & f v.! M.I.p.T.j.",
"W.aXV.oX!., 3 V 0X5.r.:X<.3X5.e.2Xm B r N b <.0X6.;Xr.7.2X<.2X8.7.2X,.3X4.-X:X6.5X3.-X,X4.>X4.=X*X5.5X4.:X=X> @ T BX'.~.pXU.aX].",
"g.E.u.L.l.+ # z 0.[ &.2.D <.H &.-.b m k N b B &.S 2.&.] ,.G >.&.} >.G ,.J &.>.H 6.F *.=.J 6.H =.| J ,.G -.*.& o a W.f.l.K.u.L.f.",
"P.oXA.oXR.2 $ x 3X<.w.r.2.;X<.t.r.;.3X2.-X*Xb N n =X8.<.=X:.=X4.4.=X-.=X<.7.e.=.:X6.8.*X;.,X-.-Xw.2.;X=.r.8.7 3 s aXT.W.+Xn.tXU.",
"G..Xv.`.C.2 O x e.;.1.t.] t.| 0.7.| e.| 7.5.b n n e.<.2.e.*.e.-.>.w.*.*X=.>.w.} *X| 5.5.=.*X| 5.5.| e.=.t.4.- @ s +XC.L.^.l.'.A.",
"c.W.s.I.x.= = < B r :.<.] 7.J 2.<.J 5.K :.-.r l l 4.:.&.4.H 4.*.} 4.J 4.&.:.<.K 5.J ;.;.K 5.J ;.-.] 5.K <.=.- O a ].v.b.L.H.FXhX",
"Q.pXU.pX}.2 2 < J b t.4X,.3X1.e.=X4.>X3.4X,XB C Z >Xr.5.>X<.2Xw.w.2X,.qXq.=XqX,.5X3.:X2X3.qX3.=X*X3.3X4.2X=X- O g BX~.I.#XjXLXGX",
"f.B.p.V.M.a U 1 0 0 | :.G ,.H 2.=.H ,.S G G e r k >.*.F >.F >.J ] 2.N ] B x V N 3.K x V N ] B -.=.H ,.B V V a d s Y.l.H.).1XDXgX",
"T.yXK.yXQ.^.BXW # 5 t.7X;.>X<.e.=X2.3X&.l n l A C 4X5.3.7X2.=X7.5.2XB N z O O ~ qXJ o @ w B n =Xr.<.>XA o o (.MXL.uX(.JXIXDXIXGX",
"v.`.l.].B.n.{.d * - 9.8.] w.*.1.4.*.r.K r b e N n 8.<.-.w.] t.-.-.t.N m q = o x -XJ ; O q N l 8.<.*.-XV = = c.^.s.`.K.cXHXlXHXzX",
"v.!.s.W.b.n.].d ; = : & x q.] 2.4.k M e l l & 7 ; : & R y.m n r r M u b r q l : 7 & l t e b e v r 7 : ; 4 % f.~.i.W.b.G.Q.H.JXlX",
"Q.pXL.@X~.W.mXU * * 3 3 ~ 0X5.,X:Xm S v m B - 5 @ 4 2 4.0XJ B n n C r S v m S < 6 = Z Z k G v C C & 4 + 2 + (.aXK.yX^.~.#XjXLXJX",
"s.U.d.U.f.f.V.g T d o 3 1 V x S S e z u r q : < ; @ o y x w r w e z 0 k w e t & @ ; r t 9 k 0 1 7 * * 4 W d d.V.u.K.f.k.B.h.jXH.",
"R.yXK.yX~.^.@XV.MXR.% 6 + 3 % x x k G i C m b F e 4 4 * 3 < G b b S r G b n S 7 6 - B B k G q 2 4 5 4 d MX[.W.@XK.pX!.].tXK.yXP.",
"S.].l.(.n.G.).j.Q.g.% 5 O , & l l e N u l z e x 1 = ; ; 4 > b t z l w b t t b : 2 & x r e V 1 = 5 = = p ).G.n.{.h.Q.N.n.!.f.`.b.",
"n.Q.H.JXxXcXJX(.I.V.K.(.j.`.d.X 5 + 5 ; = - % 5 * 4 = % 6 + - 2 = - + 5 + = - ; 6 O & 2 O ; f _.K.n._.J.JXxXzXHX).I.C.A.~.l.].S.",
"T.|.kXIXJXDXPXkXoXI.^.OXV.mXv.X 2 X 2 o = 2 o 2 o = * o 2 + = = * 2 . 2 o * = . O # o 2 o % p yX`.L.#X).IXHXGXPXkX|.T.].oXC.yXT.",
"H.jXeXxXlXlXDX1XkXH.z.N.u.L.u.W T s Q d W W d Q U W T T E d E U U E d Q U T E s Q U T W d E T B.v.J.jXeXxXlXgXGXfXjXeXg.V.u.P.s.",
"JXLXDXPXJXJXPXDXLXGX{.oXL.pXQ.uXpX/.BX/.@XOX/.BXT.pX.X^.mXL.MX|..XMXZ.MX^..X@X/.BX~.OXyXQ.MXQ.+X'.CXLXGXKXHXJXIXDXLXJX'.iXL.nXT.",
"lXGXgXGXcXcXGXgXJXlXb.L.f._.g.n.L.f.R.i.K.G.l.R.f.U.v.c._.s.Y.z.v.E.i.T.c.A.U.f.R.f.A.E.i.W.j.G.A.hXJXgXGXxXlXJXgXGXlXv.T.f.R.S."
};
