/* XPM */
static char *dungeon[] = {
/* columns rows colors chars-per-pixel */
"64 64 51 1 ",
"  c #150D0D",
". c #1E1313",
"X c #151913",
"o c #181914",
"O c #1C1E19",
"+ c #201414",
"@ c #251B1A",
"# c #291E1E",
"$ c #321E1E",
"% c #1E211C",
"& c #21231E",
"* c #29201F",
"= c #242521",
"- c #2C2221",
"; c #262924",
": c #292A25",
"> c #342424",
", c #382727",
"< c #372827",
"1 c #372928",
"2 c #3C2B2B",
"3 c #402E2E",
"4 c #403E3E",
"5 c #483838",
"6 c #464444",
"7 c #484545",
"8 c #4C4A4A",
"9 c #534E4E",
"0 c #545454",
"q c #595757",
"w c #5D5C5C",
"e c #5F6060",
"r c #656464",
"t c #696666",
"y c #676868",
"u c #6D6B6B",
"i c #706E6E",
"p c #757474",
"a c #787676",
"s c #777878",
"d c #7C7C7C",
"f c #828282",
"g c #8B8686",
"h c #8E8D8C",
"j c #908F8F",
"k c #8F908F",
"l c #90908F",
"z c #959393",
"x c #989696",
"c c #9D9D9D",
"v c #A2A2A2",
/* pixels */
"vz32psercvvvvvvvvvfp21pdercvvvvvvvvvvvvvvvvvvvvvvvvvvvfp22psercv",
"vz2<iaryxvvcvvvvvcfs21useyxvcvvvvvvvvvvvcvvvvvcvvvvvccfs21isryxv",
"fp;&0rasffffffffffck;%qrpdffffffffffffffffffffffffffffck:%qrssff",
"di;&wydddddddddfdfck;%0edddddddddddddddfddddfddddddfdfck;&qydddd",
"dp<2jxfdfddddddddffp=%0esdddddddddddddddddddfdddddddddfp&;kxdddd",
"dp22zcffddddssssddsu&%qydfddddspssssddsdddssddddsddddddp&;kcfffd",
"di-#agccfdds0000ss07@*idccfdfs000000ds0qss00sdds00ddfdfi**pgccfd",
"pt##rahzapau8668ui84@#rpkkpipu877678uu78ii88ipiu88ippipr#*ysjlsp",
"##++#*->1<2<>>>>22@@..**---*##->-1,>=&O%12%%21;;>>2221##..&;2222",
"***#..##>,23333322>------@..#-,12222;;;:22::22;:,2$$,>#@--;;2232",
"iipr##tiqwhzzzxxzzzzxzzksy@#yiqwjxxxzzzzzzzzxzzkat,,900wkzzzzzcz",
"dfdp#*isryxvvvvvvcvvvvvcgp--usryxvvvvvvvvvvvcvvvga2,qweyxvvvvvvv",
"ddfi<>qradffffffffffffffcj2,qessffffffffffffffffcz3,0esdffffffff",
"dddp2,wydddddddddddddddfcj2>wydddddfdddddddddddfcj2>eysddddddddd",
"dddp22hxfdddddddddddfdddfp;:hxfdddddddddddddddddfp-:hxfdddfddddd",
"ddfi<2xvfdddddddfdddddddsu&:zvfddddddddddddddfdddp&;zvfddddddddd",
"dddp=;zvfddddfddddddddds08O;zvfddddddddddddddddddi&;zvfddddddddd",
"fddp=;jcffddddssddssssds08O;kcffddddssssdsssssdddp&;jcffddssdddd",
"ddfi**pgccfddaqqdsq99qsdsu**pgccfdds009qssq09qsdfi**pgccfs0qsddf",
"ipit##rpjjappi88ui8768ippy@#rpkkappi8678ii8778ipiy@*rpjzsu88iipp",
"22-*...@->2222,>22>>>121-@  .O*>1111>>,,12>,>>22-@..*---##>,,222",
"22--*#  @#>>232223322232--@+  *-,,33223323323232>----@..##>>2332",
"xxzkpr*@yiqwjxxxxxzxzzxxzhpr..ruqwjxxzxzzzxxxzxzzzzkpr**yiqwhxxx",
"vvvcgp--usryxvvvvvcvvvvvvcgp%%usryxvvvvcvvvvvcvcvvvcgp*@yiruxvcv",
"ffffcj2>qrpdffffffffffffffcl2>qrasffffffffffffffffffcj-X@1udffff",
"dddfcz3,wydddddddddddddddfcz2>eysddddddsdddddddddddfcj;X-2sddddd",
"ddddfp22hxddddddddddddddddfp=;hcfdddddddddddddddddddfp;;fzdddddd",
"dddddp12zcgfddssssssssssssdi&;kcgfddddssddssddssssssdi&;zcffdddd",
"fddddp--pgccfsq99099909900sp&&sfccfdda00saqqsdq90000sp*#pgccfddd",
"ppppir**rpzxsu876666667778uy&&rsjzapai89ii88uu846666ur@#rpzxsppp",
"222,$@..*-2222>>@@@@.@-,>1--..**232121>>22>>,>@@@@O@**..@-2322>2",
"2332>-1-->222332##..**,>22--->->23333332333332-#..*@@*->->233232",
"zzzzzzzzzxxxzxxkpr@*yi0whzzzzzzzzxzzzzzzzzxzzlsr*#yuqwhzzzzzzzzz",
"vvvvcvvvccvcvvccgs**udeyxvvvcvvvvvvvvvvvvcvvvcfp**usryxvvcvvvvvv",
"dffffffffffffffgck;O0rpdffdffffffffffdffffffffck;%qrssfffffffdff",
"dddddddddddddddfck;%wyddddddddddsddddddddddddfcl;%wysdddddsddddd",
"ddddddddddddddddfp=;hxfdddddddddddddddddddddddfs=;hxfddddddddddd",
"ddsdppssddfdssdddi=;kcffffddssssddddaassddssssdi%;lcffdddddddddd",
"ds00009qsdddqqsddp11pgcvvcfs099qsdds099qss0000di**pgccfddddddddd",
"pu866668uipu88ippy12usjzzkpu8667uppu8769iu7678ur##rplzpppppipppp",
"11%OOOO#**##>,2,==>$,22322;=%OO@#*#->>>222%%1>=&..#-22221222,222",
"22;;;;-@+.##,,32:;23233322::;;**..#->>2322::22;;>>--2,$-,2,,2333",
"xxzzzjpr##riqwhxzzzzzxxxzzzzzkpy##ru0ehzzzzzzzzzzzzjst22yiqwhzzz",
"vvvvvcgp##psryxvvcvvvvcvvvvcvcfs*#pfyucvvcvvcvvcvvvcgs11isryxvvv",
"ffffffcz2,qrsdffffffffffffffffck;;hvcxffffffffffffdfcl;&0rpsffff",
"dddddfcj3,wydddddddddddddddddfck;=hcccfddddddddddddfch;%wydddddd",
"ddddddfs23kxddddddddddddddddddfp=%wudfddddddddddddddfp=;hxfddddd",
"dddddddp22lcgfddddssddssssssssdi=&0rdfdddddddddddddddp=-jcffdddd",
"fdddddfp12sgccfddaqqss09000890dp,,idccfdddddddfddddfdp,,sgvcfddd",
"pppipipy<1tsllappu88ui86666668uu23tajjapppppppiipiiipy,2yajjapip",
"21=&;;22$>,2::<222>>2>%O%&->,,22$$,,332,,22211=&&&&;22->,2332,22",
"32;;::223332::<,$$2,,>:;;:2233223333333,$$12>>;:;;;;->2233323333",
"xxzzzzxxxcxxzzat21uiqwkxzzcxxxccxxxxczat2,tiqwhzzzzf22gzzzzzzzzz",
"vcccvvvvvvvvvvfp21pdercvvvvvvvvvvvvvvvga55ddyicvvvvl33zvccvvvcvv",
"fdyucvvvvvvvvcfp22idercvvvvvvvvvvvvvvvvcxxccccvvvvfp22sdtydfffff",
"dpryxvvvvvcvvcgp11iseyxvvvvvvvvvvvvvcvcvvcvvvvvcvchs22usrraddddd",
"erasffffgffffgck;%qrpdffffffffffgffffffffffffdffffck;&0rpsdddddd",
"rysddddddddddfck;%0esdddddddddddddddddddddddddddddck;%wyddsspsdd",
"cxfdddddddfdddfp=%9esdddddddddddddddddddddddddddddfs=;hxfa0090sd",
"ccgfddddssssddsu=%qrdfddddssssssddaaddsaddddsadddddi&;zcfdq90qsd",
"fgccffda009qssq8@#ifccfdds009090ssq0ss00addsqqsdddfi**pgccdsppdd",
"ppkkaipi8768ui84+#rpjjaipu866668uu88iu88uppu88uppppr#*rpjzpipppp",
"**->,222>,>,2,#@.+##->####>>,>,-=&%%11*%11*=>>,222**..&*23222122",
"....$$$$$$$$$#............$-$$$-oXX.-#oo#-o.-$$$-#....Xo$$$$$$$$"
};
