/* XPM */
static char * matrix_xpm[] = {
"64 64 2 1",
" 	c #05a9f5",
".	c #000000",
"                                                                ",
"............................................................... ",
"............................................................... ",
"............................................................... ",
"............................................................... ",
"............................................................... ",
"............................................................... ",
"............................................................... ",
"............................................................... ",
"............................................................... ",
"............................................................... ",
"............................................................... ",
"............................................................... ",
"............................................................... ",
"............................................................... ",
"............................................................... ",
"............................................................... ",
"............................................................... ",
"............................................................... ",
"............................................................... ",
"............................................................... ",
"............................................................... ",
"............................................................... ",
"............................................................... ",
"............................................................... ",
"............................................................... ",
"............................................................... ",
"............................................................... ",
"............................................................... ",
"............................................................... ",
"............................................................... ",
"............................................................... ",
"............................................................... ",
"............................................................... ",
"............................................................... ",
"............................................................... ",
"............................................................... ",
"............................................................... ",
"............................................................... ",
"............................................................... ",
"............................................................... ",
"............................................................... ",
"............................................................... ",
"............................................................... ",
"............................................................... ",
"............................................................... ",
"............................................................... ",
"............................................................... ",
"............................................................... ",
"............................................................... ",
"............................................................... ",
"............................................................... ",
"............................................................... ",
"............................................................... ",
"............................................................... ",
"............................................................... ",
"............................................................... ",
"............................................................... ",
"............................................................... ",
"............................................................... ",
"............................................................... ",
"............................................................... ",
"............................................................... ",
"                                                                "};
