/* XPM */
static char *wall_red[] = {
/* columns rows colors chars-per-pixel */
"64 64 75 1 ",
"  c #603B46",
". c #683B45",
"X c #623F48",
"o c #633F48",
"O c #5C4F51",
"+ c #595052",
"@ c #5B5252",
"# c #5C5152",
"$ c #5E5352",
"% c #634E4F",
"& c #644E4F",
"* c #674F4F",
"= c #6C4F4D",
"- c #784349",
"; c #794349",
": c #7B4549",
"> c #7B444A",
", c #7A454A",
"< c #7C4549",
"1 c #734F4C",
"2 c #744F4C",
"3 c #6A524F",
"4 c #6B524F",
"5 c #6E534D",
"6 c #6C514E",
"7 c #6F504E",
"8 c #69574D",
"9 c #71554B",
"0 c #70564B",
"q c #70504D",
"w c #70514D",
"e c #605051",
"r c #635050",
"t c #625151",
"y c #605251",
"u c #655050",
"i c #9E3D3E",
"p c #A33C3D",
"a c #A23D3D",
"s c #A43C3C",
"d c #A43C3D",
"f c #A83B3B",
"g c #A93B3B",
"h c #AA3B3B",
"j c #AB3D3B",
"k c #AC3D3B",
"l c #B83F37",
"z c #B93F37",
"x c #B03D39",
"c c #B13D39",
"v c #B23C39",
"b c #B73F38",
"n c #A0403E",
"m c #F3771D",
"M c #DB4B2E",
"N c #C74735",
"B c #C84735",
"V c #CE4734",
"C c #CE4834",
"Z c #C04938",
"A c #D74531",
"S c #DE4630",
"D c #D04D32",
"F c #D14D32",
"G c #E14D2D",
"H c #E04C2E",
"J c #CD6A2C",
"K c #DD6D26",
"L c #F07120",
"P c #814046",
"I c #804448",
"U c #814448",
"Y c #824448",
"T c #974241",
"R c #984341",
/* pixels */
"mGj; O666666666uy757537477747474u#754444747477774t$8477477447774",
"LMkP.=ZVVVCVCCBT0JFCCCVDVVCCVVVNR0JFCCCCVDVVVVVVBR0JDVVVVVVVVVCC",
"GbhspaxxxxxxxxkYqFlxxkxxxxxxbxxkY7FlxxxxxvxlxxxxkYqFlbxxxxxbxbxn",
"Sxhhfhhfhhhhjhs:qVxfjffffffjfffp>7Cbffjjffffffffp<qFxffffffffhhx",
"Sxfhhfhffhfhhha:7Cxfhfhfffhfhhfp:1Vxfffhfffhfhffp<qCxfffhhffhfhf",
"Sxhhhhfhhfhfhha:7Bxjffhfffffhfjp:=Vxffhfkfhfhfffp>qCbffffffffhhh",
"Sxhhhhhhhfffhhf:7Abfhhfffkkffkff:=Vbfjhhhhhfhhffp>7Vxfffhfjffffh",
"Ajppappppppppai-=Bfnffnfsssssssn:=Bkpsssssssssfai<*Bknffsssssssf",
"nI>:::<<<<:::::XeRI>>>>>::::::::XeRY:>><:>>>>>>>>X*RI>>><<>>>>>>",
"27=1==3ee01666==77177=7=4e611==1=4qqq46==7$744=77*777777qq4y7777",
"VVVVVBT#8JFCVFVCVVVVVVVBT5JFVVVVVVVVABVVBR0JFAVVVVDVABDVCBR0JHCC",
"xxxxbkY#6FzxxxxxxbxlxxbfY6FlxkxxxxbxvvxlkY7FlxxbxxvxxxxvlfY7Fnxx",
"ffffff:#=Vxfhffffhffffff<qCxffhfffffhfffs>7Cxjfffffffffffs>7Axjf",
"fffkfp:#3Fxhffhhfhhffffa:6Dxfhfhfffhfhfks>7Cxfffffffhfhkks>7Cxfj",
"hfffha:#=Vxhfhfhhfhfffff>=Vxffjfffhfhfhfp>7Cxfffhffhfhfffs>7Cxff",
"hhhfff:#3Vxhhfhhhfhhfffp>1Fxhfhjfhhhhhhhp>7Cbjffhhhhhhhffs<=Fxff",
"sssssi>@7Njasssspsppsppi>*Bfssassssappfni>7Bfppppppppppppi.2Vffp",
"<<>><>%@eRY>>>>>>>>><>>>X*RY><::>><>>>>>-X*RI>>>>>>>>><>><%*RI>>",
"0qq72===427*7744y0777777742q77764y777777*777777777y04q7=766=17=7",
"KFVVVVVBVVVACCBRqJFCCCCCVVVVCCCBR0JFVVBAVVVVVVVDNR0JFBAVCCCCVVVV",
"HzxzxxxvlxxvxxjI=FlbxkbxlxxxxxlkY7FllxvxxxxbxxlvfI7Flxbxxxbxxxxl",
"Sxffffffffffffp>7Vxfjffffffffffp>4Fxfffffffffffff>7Vxffffffhffff",
"Sxfhhffffhhffff>7Vxfffffhhhfffhs<qVxfhhfffffhkhfp>7Vbfffffhfhfff",
"Sxfhffffhfhhffn>7Vlffffffhfhhffp<=Vxffhhfffffhfhp>7Vxffffhfhfhhf",
"Sxffjffffffffff>7Fxfffffhfhkfffp<7Fxffffffffhhfhp>=Vbfffhfffhjfh",
"Ahffssfaafsspfi>=Bffsssssppspppi>7Bfffsssssspsppi>7Bfppfpfppssss",
"nI>>>>>>>><>>>.*uRY>>>><><<<>>>>XeRI<<>>>>>><<<>>X*RI>>>>>>>>><<",
"177=qq*ey77q=114=2q7777=4yqq7777==177=77=4y0qq77=441774*77uy07qq",
"CCFCVBRe8JMACCVVVVVVVVVBT0JMDVVVVVVVVABCBR0JCAVVVVVVDVVACBR5JFVV",
"xxxxbhI#5FnxxbbxxxxlxxlkY7MnxxxlxxxbxxxxkYqFnvxlxxxxxlxxxkY7Flxx",
"jffffp:O4Cxffffffffffffs>7Cxffffffhffhjfa;=Vzkfhfffffhffja>7Vxff",
"ffffff:O4Cxjfffhfffffffs>7Cxffhfffhfhffff<=Vbhfhfffffffffs>7Vlff",
"fffffp>#4Vxffffffffffffp>7Cxffffhhffhhfhp>=VxffffffffffhhfY2Vxhf",
"fffffp>#7Cbfhfffkffffffp>qFxffffhfffhfhhi>7Vlfffffhffffffs.=Vlfh",
"fsapfi>#4Nksssasfppffnfi>=Bkfsnfnfppppfpi>=Bffnfpnffppfnsi>=Bhnp",
">>>>>>X@#TY<<<>>>>>>>>>>XeRY>>>>>>>><>>>>X*RI<>>>>>>>>>><>%%RY>>",
"07qq===479q6=q=7#07717=7==2177777#7777777*7177777*y0qq7477772777",
"KFVVBAVVCCCCVCBR0JFVVVVVVVVVVVVBT0JDVVCCBAVVVVVDBR0JFCBAVVVVVVVV",
"HlxxxvbxxbxxbxkY7ClxxxbxbxxxxxbjIqDlxxbxvvvxxblxh<7Flxlxxxvvvvlx",
"Sxfffffffhhfffi>7Axfffpffffffffp>7Dxhfffhpfffffff>7Vxffffffffpff",
"Sxfhhhfkfhhffhs>7Cbfffhffffhhfff>7Cxfhfffhfhhfhhs>qCvhfffffhfkff",
"Sxfffhffhffhfhs>7Cxffffhffffhhfp>7Cxhfkfhfhffhfhs>qCvhfffhhfhfhf",
"Sxfffkhfffjjkfs:7Fxfffhfffkfhfhf>7Vxfhfffkhffhffp>7Vvffffffhhhhf",
"Aksssssspapafsi:3Bjasssfppfpsssn>7Bkssssssssppppi>7Bhsppfppppppp",
"iI>><<>>:>>>>>>X4RY><<<:>>>>>>>>XeRI>><<<<<>>>>>>X*TY>>>>><<<<<<",
"1777qq4ye50377==4q77qq6=4y4777===41=1==*7*y077777=47qq77777y0q77",
"CVVVVBRy7JFCCCVVVVABVVVBR0JFVVVVFVVVVVVABR0JFVVVVVVVFCVVVBR0JFVV",
"xxlxxkIO4FlxxxxxxxxxxxbkI7FlxxbbxxxbxxxxkI7FlbxxxxxxxxxxxkI7Flxx",
"ffhffp<#7Cxfhfhpffhfhffs<7Vxffffffhfffffs>7Cbffffffffhfhfs>7Cxff",
"ffhhhp<y4Vxffhffkffhhhks<qCxfhkfhhffhhhfs>7Cxhfffffhffhfks>qCxff",
"fhfkfp>#4Vxfhffhfhfffhfs>qClffffhffhffffs>*Cxffkhfhffffffs<qDxhh",
"hfffff>O4Vvjfhhhffjfhffs>=Vxfkffhhhfhhffs>7Axfffhhhhffjjfs<qDxhf",
"ssnfpi.*7Bhnppppassssssi>=Bkssssfpppfpnfi.2Vjpppssssspsppp;7Bhpp",
"<<>>>>%@#RI><<<<::::>>>>XeRY>>>>>><<><>>>%eRI>>><<>>>>>>>>XeRI>>",
"0777*7647q7777q7y07166*7=7qq=7777y07*7777771771=q4y77777*1742777",
"KFCCABCCCCVVVCBR5JFVVVVAVVCCCCCBT0JFVVVVVVVVVVVVBR0JFCCCVVVVVVVV",
"HlxlvxxlxlbxxxfI7CnbbxvxvvxlvxlhY4FlxlxxbxxvvvbxjI6Flvxlxxlxbxxx",
"Sxfffffffffffff>4Czxffhffffffffp>7Cxffffffffhffhp>1Vvffffffhffff",
"Sxfhffhfffhfffn>7Cvffhfhffhffffp>7Vxffffkffffhhfa>=Vvfffffffhfff",
"Sxfhfffffhfkfff>7Avfhfhffffffffp>7Cxfffffhffhffhf>1Vxffffffhhfff",
"Sxfhfhffffffffp>7Vxfhhhfhfffffff>7Vxhfhfffffffffp>=Vxjjfhhffhfff",
"Afpfppfpppfpfpi>7Bhfppppfpppfppn>7Bffnpffasssssfi>=Njsapsssafppf",
"iY>>>>>><>>>>>>XyRY>>>>><<<<<<<;XeRI>>>>::>><>:;<X*TY><<<<::><>>",
"yy#y#yy#yye#y##O#*yOyy#yy#yyOy##O#*e#yyye#yyyye#####eye#ee#ee#e#"
};
