/* XPM */
static char *metamask_icon[] = {
/* columns rows colors chars-per-pixel */
"64 64 99 2 ",
"   c #151515",
".  c #1D1B1B",
"X  c #211B16",
"o  c #262422",
"O  c #2C2A28",
"+  c #773D17",
"@  c #7A3E16",
"#  c #773E19",
"$  c #563B24",
"%  c #583D26",
"&  c #7D4017",
"*  c #77401C",
"=  c #79421E",
"-  c #554137",
";  c #534038",
":  c #5B4A3A",
">  c #774422",
",  c #794523",
"<  c #644534",
"1  c #2C3542",
"2  c #323740",
"3  c #343A42",
"4  c #695E57",
"5  c #695F58",
"6  c #6E645C",
"7  c #834316",
"8  c #8A4716",
"9  c #8E4917",
"0  c #8F4918",
"q  c #934C17",
"w  c #984E17",
"e  c #954E18",
"r  c #9F5318",
"t  c #A35519",
"y  c #AD5B19",
"u  c #B35D1A",
"i  c #B56019",
"p  c #BC621A",
"a  c #8C4F22",
"s  c #8F5022",
"d  c #935226",
"f  c #955F2E",
"g  c #A45722",
"h  c #A85923",
"j  c #AD6327",
"k  c #A0642D",
"l  c #CE6216",
"z  c #C4651A",
"x  c #C96118",
"c  c #C46C1C",
"v  c #CA6B1B",
"b  c #D06416",
"n  c #D46817",
"m  c #D36718",
"M  c #D46E1B",
"N  c #DB6E19",
"B  c #D5711B",
"V  c #DE721B",
"C  c #DE791C",
"Z  c #E4771C",
"A  c #E5791D",
"S  c #EC7D1C",
"D  c #C56B20",
"F  c #C86C21",
"G  c #CE7725",
"H  c #D07724",
"J  c #DA7620",
"K  c #DE7B25",
"L  c #DF7C2A",
"P  c #E07620",
"I  c #E17922",
"U  c #E17D2A",
"Y  c #EF811C",
"T  c #F5851B",
"R  c #F8861B",
"E  c #EE8424",
"W  c #F38621",
"Q  c #F48925",
"!  c #F18A29",
"~  c #D5864A",
"^  c #D68C4D",
"/  c #DF965B",
"(  c #A6968C",
")  c #A9998D",
"_  c #B5A497",
"`  c #B5A398",
"'  c #BFAA9C",
"]  c #C0AD9E",
"[  c #D7B092",
"{  c #DBB394",
"}  c #C2AFA1",
"|  c #C3B0A2",
" . c #C7B7AA",
".. c #CDB7A9",
"X. c #CCB8AA",
"o. c #D4BFB0",
"O. c #D7C1B3",
"+. c #D9C3B4",
"@. c None",
/* pixels */
"@.@.@.@.@.@.@.@.@.@.@.@.@.@.@.@.@.@.@.@.@.@.@.@.@.@.@.@.@.@.@.@.@.@.@.@.@.@.@.@.@.@.@.@.@.@.@.@.@.@.@.@.@.@.@.@.@.@.@.@.@.@.@.@.",
"@.@.@.@.@.@.@.@.@.@.@.@.@.@.@.@.@.@.@.@.@.@.@.@.@.@.@.@.@.@.@.@.@.@.@.@.@.@.@.@.@.@.@.@.@.@.@.@.@.@.@.@.@.@.@.@.@.@.@.@.@.@.@.@.",
"@.@.@.@.@.@.@.@.@.@.@.@.@.@.@.@.@.@.@.@.@.@.@.@.@.@.@.@.@.@.@.@.@.@.@.@.@.@.@.@.@.@.@.@.@.@.@.@.@.@.@.@.@.@.@.@.@.@.@.@.@.@.@.@.",
"@.@.@.@.@.@.@.@.@.@.@.@.@.@.@.@.@.@.@.@.@.@.@.@.@.@.@.@.@.@.@.@.@.@.@.@.@.@.@.@.@.@.@.@.@.@.@.@.@.@.@.@.@.@.@.@.@.@.@.@.@.@.@.@.",
"@.@.@.@.@.@.@.@.@.@.@.@.@.@.@.@.@.@.@.@.@.@.@.@.@.@.@.@.@.@.@.@.@.@.@.@.@.@.@.@.@.@.@.@.@.@.@.@.@.@.@.@.@.@.@.@.@.@.@.@.@.@.@.@.",
"@.@.@.@.@.@.@.@.@.@.@.@.@.@.@.@.@.@.@.@.@.@.@.@.@.@.@.@.@.@.@.@.@.@.@.@.@.@.@.@.@.@.@.@.@.@.@.@.@.@.@.@.@.@.@.@.@.@.@.@.@.@.@.@.",
"@.@.@.@.@.@.@.@.@.@.@.@.@.@.@.@.@.@.@.@.@.@.@.@.@.@.@.@.@.@.@.@.@.@.@.@.@.@.@.@.@.@.@.@.@.@.@.@.@.@.@.@.@.@.@.@.@.@.@.@.@.@.@.@.",
"@.@.@.@.@.@.@.@.@.s @.@.@.@.@.@.@.@.@.@.@.@.@.@.@.@.@.@.@.@.@.@.@.@.@.@.@.@.@.@.@.@.@.@.@.@.@.@.@.@.@.@.@.@.a @.@.@.@.@.@.@.@.@.",
"@.@.@.@.@.@.@.@.> @ q F U @.@.@.@.@.@.@.@.@.@.@.@.@.@.@.@.@.@.@.@.@.@.@.@.@.@.@.@.@.@.@.@.@.@.@.@.@.@.L D q @ , @.@.@.@.@.@.@.@.",
"@.@.@.@.@.@.@.@.* + + 7 p C I U @.@.@.@.@.@.@.@.@.@.@.@.@.@.@.@.@.@.@.@.@.@.@.@.@.@.@.@.@.@.@.@.K K C p 7 + + # @.@.@.@.@.@.@.@.",
"@.@.@.@.@.@.@.@.# + + + @ t B A I I @.@.@.@.@.@.@.@.@.@.@.@.@.@.@.@.@.@.@.@.@.@.@.@.@.@.@.@.C Z Z B t @ + + + # @.@.@.@.@.@.@.@.",
"@.@.@.@.@.@.@., + + + + + + e v Z A Z I U @.@.@.@.@.@.@.@.@.@.@.@.@.@.@.@.@.@.@.@.@.@.K A C A Z v q + + + + + + = @.@.@.@.@.@.@.",
"@.@.@.@.@.@.@.# + + + + + + + 7 u Z Z Z Z A I U @.@.@.@.@.@.@.@.@.@.@.@.@.@.@.@.K K C Z C Z C y 7 + + + + + + + * @.@.@.@.@.@.@.",
"@.@.@.@.@.@.@.@ + + + + + + + + + t N Z Z Z Z Z A E Q Q Q R Q Q Q Q Q Q Q Q E A Z Z Z Z Z n r & + + + + # @ + + # @.@.@.@.@.@.@.",
"@.@.@.@.@.@., @ + + + + + + + + + + e z Z Z Z Z A S R T T R R T R T R T R T S Z Z Z C Z z 9 + + + + + + + + + + + , @.@.@.@.@.@.",
"@.@.@.@.@.@., + @ + + + + + + + + + + 7 u C A Z A A T T T T T T R T T T R T Z Z V A V u 7 + + + + + + + + + + + + , @.@.@.@.@.@.",
"@.@.@.@.@.@.@.# + + + + + + + + + + + + @ r B A Z Z Y T T T R T T T T T T Y Z Z Z n r @ + + + + + + + + + + + + # @.@.@.@.@.@.@.",
"@.@.@.@.@.@.@.# @ + + + + + + + + + + @ + + q z Z Z S T T T T T T T T T T S V Z c 8 + + + + + + + + + + + + + + # @.@.@.@.@.@.@.",
"@.@.@.@.@.@.@.# + + + + + + + @ + + + + + + # & y Z Z T R T R T R T T T T Z C y & + + + + + + + + + + + + @ + + # @.@.@.@.@.@.@.",
"@.@.@.@.@.@.@.> + + + + + + + + + + + + + + + + @ t B Y T T T T T T T T Y n r @ + + + + + + + @ + + # + + + + + * @.@.@.@.@.@.@.",
"@.@.@.@.@.@.@., + + + + + + + + + + + + + + @ + + + 8 z T T R T T T T T z 9 + + + + + + + + + + + + + + + + + + , @.@.@.@.@.@.@.",
"@.@.@.@.@.@.@.@.+ + + + + + + + + + @ + + + + + + + + 8 A R T T R T T Y 8 + + + + + + + + + + + + + + + + + + # @.@.@.@.@.@.@.@.",
"@.@.@.@.@.@.@.@.* + + + + + + + + + + + + + + + + + 7 p T T T T T T T Y p 7 + + + + @ + + + + + + + + @ + + + # @.@.@.@.@.@.@.@.",
"@.@.@.@.@.@.@.* + @ + + + + + + + + + + # + + + * 9 n Z T T T T T T T Y Z v 9 + + + + + + + + + + + + + + + + # > @.@.@.@.@.@.@.",
"@.@.@.@.@.@.@.@.* + + + + + + + + + + + + + + + w B Z Z T T T T T R T Y Z Z n w + + + + + + + + + + @ + + + + * @.@.@.@.@.@.@.@.",
"@.@.@.@.@.@.@.@.* # + + + + + + + + + + + + @ t V Z Z Z S T T T R R T S Z Z A V t @ + + + + + + + + + + + + + * @.@.@.@.@.@.@.@.",
"@.@.@.@.@.@.@.@.* # + + + + * + + # + + + & y A Z Z Z Z T T T T T T R Y Z Z Z Z C y & + + + + + + + + + + + # * @.@.@.@.@.@.@.@.",
"@.@.@.@.@.@.@.@., @ + + + + + + + + @ 7 w p Z Z Z Z Z Z S T T T T T T Y Z Z A Z A A p w 7 @ + + + + + + + + @ , @.@.@.@.@.@.@.@.",
"@.@.@.@.@.@.@.@.> # + + + + + & 9 y v A A A Z Z Z Z Z Z T T T T T T T S Z Z Z Z Z Z Z Z A v y 8 @ + + + + + * > @.@.@.@.@.@.@.@.",
"@.@.@.@.@.@.@.@.@.* + + & e i B S T T T Z A Z Z Z Z Z Z S T T T T T T Y Z Z Z A Z Z A Z Y R T Y B i e 7 + # * @.@.@.@.@.@.@.@.@.",
"@.@.@.@.@.@.@.@.@.@.t z C T T R T T T S A Z Z Z Z Z Z Z S T T T T T T S Z Z Z Z Z A A Z A R R R R R Y C z r @.@.@.@.@.@.@.@.@.@.",
"@.@.@.@.@.@.@.@.@.@.Q T T T T T T T S Z Z Z Z Z Z Z Z Z S T T T T R T S Z Z Z A Z Z Z A A Y T T T T T T R W @.@.@.@.@.@.@.@.@.@.",
"@.@.@.@.@.@.@.@.@.@.T T T R T T R S N N N N N N N Z V V Z T R T T T T Z V V V V N N N N N N S R R T T R T R @.@.@.@.@.@.@.@.@.@.",
"@.@.@.@.@.@.@.@.@.Q T T T T T R R S Z b l l b l l l l l N T T T R T T N b b l b l l l l l Z T R R T T T T T ! @.@.@.@.@.@.@.@.@.",
"@.@.@.@.@.@.@.@.@.Q T R T T T T R R S V l l l l l l l l N T T T T T T N l l b l l l l l N S R R R T T R T T Q @.@.@.@.@.@.@.@.@.",
"@.@.@.@.@.@.@.@.@.T T T T R T T T R R I N l l l x g u l N T T R T T T V l y t l l l l N S S R R T T T T T T T @.@.@.@.@.@.@.@.@.",
"@.@.@.@.@.@.@.@.! T T T T T T T T R R S Z N l d % 1 4 x N T R T T R S V l < 1 % d x N P S T R T T T T T T T T ! @.@.@.@.@.@.@.@.",
"@.@.@.@.@.@.@.@.Q T T R R T T R R R T T S A J f : 3 2 r Z T T T T R R Z t 2 3 : f C Z S R T T T T R R T T R R W @.@.@.@.@.@.@.@.",
"@.@.@.@.@.@.@.@.R T T T T T T T R T T T S I T T W H h h Z S R T T R S S j k G E R S Z S R T T T T T R T T R T T @.@.@.@.@.@.@.@.",
"@.@.@.@.@.@.@.Q T R T T T R T T R T R T T S S R R R W W S T T T T T T I T R W W R T S T T R R T T R T T T T T T Q @.@.@.@.@.@.@.",
"@.@.@.@.@.@.@.Q T T T R T T T R R T R R R T S R R T T T S T T T T T S S T R T T R T T R R R T R T T T T T T T T Q @.@.@.@.@.@.@.",
"@.@.@.@.@.@.@.T T T T S T T T S S S S S S S T R T T T T S T R T T R W S T T T T T S S S S S S S T T S T S T T T W @.@.@.@.@.@.@.",
"@.@.@.@.@.@.@.I Z Z Z Z Z Z Z Z N b l l b b N T R T T T T T T T R R S R R T R R T N b b b b b N Z Z Z S Z Z Z Z I @.@.@.@.@.@.@.",
"@.@.@.@.@.@.@.I Z A Z Z Z Z Z Z Z n l l l b N Z S T T T T S T T R R R S T R R S Z N l l l b b Z Z Z Z Z Z Z Z Z I @.@.@.@.@.@.@.",
"@.@.@.@.@.@.@.@.Z Z Z Z Z Z Z Z Z N b l l l N Z Z S T T T R R R R R R R T T S Z Z Z l l l l N Z Z Z Z Z A Z Z Z @.@.@.@.@.@.@.@.",
"@.@.@.@.@.@.@.@.A Z Z A Z Z Z Z Z Z N b l l Z Z Z Z S T C c c c c v c I S S Z Z Z N b l l N Z Z Z Z Z Z Z Z Z I @.@.@.@.@.@.@.@.",
"@.@.@.@.@.@.@.@.I Z Z Z Z Z S Z Z Z Z b l b Z Z Z Z U ^ $ X X X X X X % ^ U Z Z Z Z b l b Z Z Z Z Z Z Z Z Z Z I @.@.@.@.@.@.@.@.",
"@.@.@.@.@.@.@.@.U Z Z Z Z Z Z Z Z Z Z N b b Z Z U / { ' O             O ] { / U Z Z b b Z Z Z Z Z Z Z Z Z Z Z U @.@.@.@.@.@.@.@.",
"@.@.@.@.@.@.@.@.@.Z Z Z A Z Z Z Z Z Z Z N m U / { O.+.` o             o ` +.o.{ / U n N Z Z Z Z Z Z Z Z Z Z I @.@.@.@.@.@.@.@.@.",
"@.@.@.@.@.@.@.@.@.I Z Z Z Z A Z Z Z Z A J ~ { O.O.O.+.( .             . ( +.+.+.O.[ ~ P Z Z Z Z Z Z Z Z Z Z I @.@.@.@.@.@.@.@.@.",
"@.@.@.@.@.@.@.@.@.I Z Z Z Z Z I A I U @.@.@. ...o.O.+.) 6 6 6 6 6 6 6 4 ) +.+.o... .@.@.@.U I I A A Z Z Z Z I @.@.@.@.@.@.@.@.@.",
"@.@.@.@.@.@.@.@.@.@.A Z A I I @.@.@.@.@.@.@.@.@.| ..O...] | ] | } } } } X.o...| @.@.@.@.@.@.@.@.@.I A A Z A @.@.@.@.@.@.@.@.@.@.",
"@.@.@.@.@.@.@.@.@.@.L U @.@.@.@.@.@.@.@.@.@.@.@.@.| | | ] ] ] ] ] ] ] ] | | | @.@.@.@.@.@.@.@.@.@.@.@.@.U L @.@.@.@.@.@.@.@.@.@.",
"@.@.@.@.@.@.@.@.@.@.@.@.@.@.@.@.@.@.@.@.@.@.@.@.@.@.| ] ] ] ] ' ] ] ] ] ] } @.@.@.@.@.@.@.@.@.@.@.@.@.@.@.@.@.@.@.@.@.@.@.@.@.@.",
"@.@.@.@.@.@.@.@.@.@.@.@.@.@.@.@.@.@.@.@.@.@.@.@.@.@.@.@.| | | | | | } } @.@.@.@.@.@.@.@.@.@.@.@.@.@.@.@.@.@.@.@.@.@.@.@.@.@.@.@.",
"@.@.@.@.@.@.@.@.@.@.@.@.@.@.@.@.@.@.@.@.@.@.@.@.@.@.@.@.@.@.@.@.@.@.@.@.@.@.@.@.@.@.@.@.@.@.@.@.@.@.@.@.@.@.@.@.@.@.@.@.@.@.@.@.",
"@.@.@.@.@.@.@.@.@.@.@.@.@.@.@.@.@.@.@.@.@.@.@.@.@.@.@.@.@.@.@.@.@.@.@.@.@.@.@.@.@.@.@.@.@.@.@.@.@.@.@.@.@.@.@.@.@.@.@.@.@.@.@.@.",
"@.@.@.@.@.@.@.@.@.@.@.@.@.@.@.@.@.@.@.@.@.@.@.@.@.@.@.@.@.@.@.@.@.@.@.@.@.@.@.@.@.@.@.@.@.@.@.@.@.@.@.@.@.@.@.@.@.@.@.@.@.@.@.@.",
"@.@.@.@.@.@.@.@.@.@.@.@.@.@.@.@.@.@.@.@.@.@.@.@.@.@.@.@.@.@.@.@.@.@.@.@.@.@.@.@.@.@.@.@.@.@.@.@.@.@.@.@.@.@.@.@.@.@.@.@.@.@.@.@.",
"@.@.@.@.@.@.@.@.@.@.@.@.@.@.@.@.@.@.@.@.@.@.@.@.@.@.@.@.@.@.@.@.@.@.@.@.@.@.@.@.@.@.@.@.@.@.@.@.@.@.@.@.@.@.@.@.@.@.@.@.@.@.@.@.",
"@.@.@.@.@.@.@.@.@.@.@.@.@.@.@.@.@.@.@.@.@.@.@.@.@.@.@.@.@.@.@.@.@.@.@.@.@.@.@.@.@.@.@.@.@.@.@.@.@.@.@.@.@.@.@.@.@.@.@.@.@.@.@.@.",
"@.@.@.@.@.@.@.@.@.@.@.@.@.@.@.@.@.@.@.@.@.@.@.@.@.@.@.@.@.@.@.@.@.@.@.@.@.@.@.@.@.@.@.@.@.@.@.@.@.@.@.@.@.@.@.@.@.@.@.@.@.@.@.@.",
"@.@.@.@.@.@.@.@.@.@.@.@.@.@.@.@.@.@.@.@.@.@.@.@.@.@.@.@.@.@.@.@.@.@.@.@.@.@.@.@.@.@.@.@.@.@.@.@.@.@.@.@.@.@.@.@.@.@.@.@.@.@.@.@.",
"@.@.@.@.@.@.@.@.@.@.@.@.@.@.@.@.@.@.@.@.@.@.@.@.@.@.@.@.@.@.@.@.@.@.@.@.@.@.@.@.@.@.@.@.@.@.@.@.@.@.@.@.@.@.@.@.@.@.@.@.@.@.@.@."
};
